STARTFONT 2.1
COMMENT AUTOMATICALLY GENERATED FILE. DO NOT EDIT!
COMMENT Generated with 'ucs2any.pl lubB12.bdf ../../../fonts/util/map-ISO8859-1 ISO8859-1'
COMMENT from an ISO10646-1 encoded source BDF font.
COMMENT ucs2any.pl by Markus Kuhn <mkuhn@acm.org>, 2000.
COMMENT $Xorg: $
COMMENT ISO10646-1 extension by Markus Kuhn <mkuhn@acm.org>, 2001-03-20
COMMENT  (c) Copyright Bigelow & Holmes 1986, 1985. Lucida is a registered
COMMENT  trademark of Bigelow & Holmes. See LEGAL NOTICE file for terms 
COMMENT  of the license. 
FONT -B&H-LucidaBright-DemiBold-R-Normal--12-120-75-75-P-71-ISO8859-1
SIZE 12 72 72
FONTBOUNDINGBOX 19 14 -7 -2
STARTPROPERTIES 22
COMMENT Begin LogicalFontDescription
FONTNAME_REGISTRY ""
FOUNDRY "B&H"
FAMILY_NAME "LucidaBright"
WEIGHT_NAME "DemiBold"
SLANT "R"
SETWIDTH_NAME "Normal"
ADD_STYLE_NAME ""
PIXEL_SIZE 12
POINT_SIZE 120
RESOLUTION_X 75
RESOLUTION_Y 75
SPACING "P"
AVERAGE_WIDTH 71
CHARSET_REGISTRY "ISO8859"
CHARSET_ENCODING "1"
COMMENT END LogicalFontDescription
FONT_ASCENT 11
FONT_DESCENT 3
DEFAULT_CHAR 0
COPYRIGHT "Copyright Bigelow & Holmes 1986, 1985."
FACE_NAME "Lucida Bright Demibold"
X_HEIGHT 6
CAP_HEIGHT 9
ENDPROPERTIES
CHARS 192
STARTCHAR defaultchar
ENCODING 0
SWIDTH 798 0
DWIDTH 10 0
BBX 9 9 0 0
BITMAP
AA80
0000
8080
0000
8080
0000
8080
0000
AA80
ENDCHAR
STARTCHAR space
ENCODING 32
SWIDTH 333 0
DWIDTH 4 0
BBX 1 1 0 0
BITMAP
00
ENDCHAR
STARTCHAR exclam
ENCODING 33
SWIDTH 265 0
DWIDTH 3 0
BBX 2 9 1 0
BITMAP
C0
C0
C0
C0
40
40
00
C0
C0
ENDCHAR
STARTCHAR quotedbl
ENCODING 34
SWIDTH 461 0
DWIDTH 6 0
BBX 5 4 0 5
BITMAP
D8
D8
50
50
ENDCHAR
STARTCHAR numbersign
ENCODING 35
SWIDTH 663 0
DWIDTH 8 0
BBX 7 9 0 0
BITMAP
14
24
7E
28
28
FC
48
50
50
ENDCHAR
STARTCHAR dollar
ENCODING 36
SWIDTH 623 0
DWIDTH 7 0
BBX 5 11 1 -1
BITMAP
20
78
E8
E0
60
30
38
B8
B8
F0
20
ENDCHAR
STARTCHAR percent
ENCODING 37
SWIDTH 759 0
DWIDTH 9 0
BBX 8 9 1 0
BITMAP
63
F2
F4
F8
78
16
2F
4F
C6
ENDCHAR
STARTCHAR ampersand
ENCODING 38
SWIDTH 765 0
DWIDTH 9 0
BBX 8 9 1 0
BITMAP
38
6C
6C
30
73
DA
CE
EE
7F
ENDCHAR
STARTCHAR quotesingle
ENCODING 39
SWIDTH 253 0
DWIDTH 3 0
BBX 3 4 0 5
BITMAP
E0
E0
40
40
ENDCHAR
STARTCHAR parenleft
ENCODING 40
SWIDTH 327 0
DWIDTH 4 0
BBX 3 11 0 -2
BITMAP
20
40
40
C0
C0
C0
C0
C0
40
40
20
ENDCHAR
STARTCHAR parenright
ENCODING 41
SWIDTH 327 0
DWIDTH 4 0
BBX 3 11 0 -2
BITMAP
80
40
40
60
60
60
60
60
40
40
80
ENDCHAR
STARTCHAR asterisk
ENCODING 42
SWIDTH 434 0
DWIDTH 5 0
BBX 5 4 0 5
BITMAP
20
F8
50
D0
ENDCHAR
STARTCHAR plus
ENCODING 43
SWIDTH 623 0
DWIDTH 7 0
BBX 7 8 0 0
BITMAP
10
10
10
10
FE
10
10
10
ENDCHAR
STARTCHAR comma
ENCODING 44
SWIDTH 265 0
DWIDTH 3 0
BBX 2 4 1 -2
BITMAP
C0
C0
C0
C0
ENDCHAR
STARTCHAR hyphen
ENCODING 45
SWIDTH 289 0
DWIDTH 3 0
BBX 3 2 0 2
BITMAP
E0
E0
ENDCHAR
STARTCHAR period
ENCODING 46
SWIDTH 265 0
DWIDTH 3 0
BBX 2 2 1 0
BITMAP
C0
C0
ENDCHAR
STARTCHAR slash
ENCODING 47
SWIDTH 527 0
DWIDTH 6 0
BBX 6 11 0 -2
BITMAP
04
08
08
10
10
30
20
20
40
40
80
ENDCHAR
STARTCHAR zero
ENCODING 48
SWIDTH 623 0
DWIDTH 7 0
BBX 7 9 0 0
BITMAP
38
6C
C6
C6
C6
C6
C6
6C
38
ENDCHAR
STARTCHAR one
ENCODING 49
SWIDTH 623 0
DWIDTH 7 0
BBX 6 9 1 0
BITMAP
F0
30
30
30
30
30
30
30
FC
ENDCHAR
STARTCHAR two
ENCODING 50
SWIDTH 623 0
DWIDTH 7 0
BBX 6 9 1 0
BITMAP
F8
8C
8C
0C
18
20
40
FC
FC
ENDCHAR
STARTCHAR three
ENCODING 51
SWIDTH 623 0
DWIDTH 7 0
BBX 6 9 1 0
BITMAP
F8
8C
0C
08
70
1C
0C
8C
F8
ENDCHAR
STARTCHAR four
ENCODING 52
SWIDTH 623 0
DWIDTH 7 0
BBX 7 9 0 0
BITMAP
0C
1C
2C
4C
FE
FE
0C
0C
1E
ENDCHAR
STARTCHAR five
ENCODING 53
SWIDTH 623 0
DWIDTH 7 0
BBX 5 9 1 0
BITMAP
F8
F8
80
80
F0
38
18
98
F0
ENDCHAR
STARTCHAR six
ENCODING 54
SWIDTH 623 0
DWIDTH 7 0
BBX 7 9 0 0
BITMAP
3E
62
C0
FC
CE
C6
C6
66
3C
ENDCHAR
STARTCHAR seven
ENCODING 55
SWIDTH 623 0
DWIDTH 7 0
BBX 6 9 1 0
BITMAP
FC
FC
08
18
30
20
60
C0
C0
ENDCHAR
STARTCHAR eight
ENCODING 56
SWIDTH 623 0
DWIDTH 7 0
BBX 6 9 1 0
BITMAP
78
CC
CC
68
38
CC
CC
CC
78
ENDCHAR
STARTCHAR nine
ENCODING 57
SWIDTH 623 0
DWIDTH 7 0
BBX 7 9 0 0
BITMAP
78
CC
C6
C6
E6
7E
06
8C
F8
ENDCHAR
STARTCHAR colon
ENCODING 58
SWIDTH 265 0
DWIDTH 3 0
BBX 2 6 1 0
BITMAP
C0
C0
00
00
C0
C0
ENDCHAR
STARTCHAR semicolon
ENCODING 59
SWIDTH 265 0
DWIDTH 3 0
BBX 2 8 1 -2
BITMAP
C0
C0
00
00
C0
C0
C0
80
ENDCHAR
STARTCHAR less
ENCODING 60
SWIDTH 623 0
DWIDTH 7 0
BBX 7 8 0 0
BITMAP
02
0C
18
E0
60
18
0C
02
ENDCHAR
STARTCHAR equal
ENCODING 61
SWIDTH 623 0
DWIDTH 7 0
BBX 7 3 0 2
BITMAP
FE
00
FE
ENDCHAR
STARTCHAR greater
ENCODING 62
SWIDTH 623 0
DWIDTH 7 0
BBX 7 8 0 0
BITMAP
80
60
30
0C
0E
30
60
80
ENDCHAR
STARTCHAR question
ENCODING 63
SWIDTH 505 0
DWIDTH 6 0
BBX 5 9 1 0
BITMAP
F0
98
18
10
20
60
60
60
60
ENDCHAR
STARTCHAR at
ENCODING 64
SWIDTH 861 0
DWIDTH 10 0
BBX 9 9 1 0
BITMAP
1E00
2100
5880
9E80
B280
B680
BB80
4000
3E00
ENDCHAR
STARTCHAR A
ENCODING 65
SWIDTH 795 0
DWIDTH 10 0
BBX 10 9 0 0
BITMAP
0C00
0C00
1E00
1600
2300
3F00
4180
4180
C3C0
ENDCHAR
STARTCHAR B
ENCODING 66
SWIDTH 639 0
DWIDTH 8 0
BBX 7 9 0 0
BITMAP
FC
66
66
64
78
66
66
66
FC
ENDCHAR
STARTCHAR C
ENCODING 67
SWIDTH 711 0
DWIDTH 9 0
BBX 8 9 0 0
BITMAP
3F
61
C1
C0
C0
C0
C0
61
3F
ENDCHAR
STARTCHAR D
ENCODING 68
SWIDTH 794 0
DWIDTH 10 0
BBX 9 9 0 0
BITMAP
FE00
6300
6180
6180
6180
6180
6180
6300
FE00
ENDCHAR
STARTCHAR E
ENCODING 69
SWIDTH 601 0
DWIDTH 7 0
BBX 7 9 0 0
BITMAP
FE
62
60
64
7C
64
60
62
FE
ENDCHAR
STARTCHAR F
ENCODING 70
SWIDTH 584 0
DWIDTH 7 0
BBX 7 9 0 0
BITMAP
FE
62
60
64
7C
64
60
60
F0
ENDCHAR
STARTCHAR G
ENCODING 71
SWIDTH 753 0
DWIDTH 9 0
BBX 8 9 1 0
BITMAP
3E
62
C2
C0
C0
CF
C6
66
3E
ENDCHAR
STARTCHAR H
ENCODING 72
SWIDTH 798 0
DWIDTH 10 0
BBX 9 9 0 0
BITMAP
F780
6300
6300
6300
7F00
6300
6300
6300
F780
ENDCHAR
STARTCHAR I
ENCODING 73
SWIDTH 349 0
DWIDTH 4 0
BBX 4 9 0 0
BITMAP
F0
60
60
60
60
60
60
60
F0
ENDCHAR
STARTCHAR J
ENCODING 74
SWIDTH 452 0
DWIDTH 5 0
BBX 5 11 0 -2
BITMAP
78
30
30
30
30
30
30
30
30
B0
E0
ENDCHAR
STARTCHAR K
ENCODING 75
SWIDTH 747 0
DWIDTH 9 0
BBX 9 9 0 0
BITMAP
F300
6200
6400
6800
7800
6C00
6E00
6700
F780
ENDCHAR
STARTCHAR L
ENCODING 76
SWIDTH 584 0
DWIDTH 7 0
BBX 7 9 0 0
BITMAP
F0
60
60
60
60
60
60
62
FE
ENDCHAR
STARTCHAR M
ENCODING 77
SWIDTH 904 0
DWIDTH 11 0
BBX 10 9 0 0
BITMAP
E1C0
7180
7380
7380
5D80
5D80
4D80
4980
E3C0
ENDCHAR
STARTCHAR N
ENCODING 78
SWIDTH 788 0
DWIDTH 9 0
BBX 9 9 0 0
BITMAP
E380
6100
7100
7900
5D00
4D00
4700
4700
E300
ENDCHAR
STARTCHAR O
ENCODING 79
SWIDTH 810 0
DWIDTH 10 0
BBX 9 9 0 0
BITMAP
3E00
6300
C180
C180
C180
C180
C180
6300
3E00
ENDCHAR
STARTCHAR P
ENCODING 80
SWIDTH 614 0
DWIDTH 7 0
BBX 7 9 0 0
BITMAP
FC
66
66
66
7C
60
60
60
F0
ENDCHAR
STARTCHAR Q
ENCODING 81
SWIDTH 810 0
DWIDTH 10 0
BBX 10 11 1 -2
BITMAP
3E00
6300
C180
C180
C180
C180
C180
6300
3E00
03C0
0180
ENDCHAR
STARTCHAR R
ENCODING 82
SWIDTH 720 0
DWIDTH 9 0
BBX 9 9 0 0
BITMAP
FC00
6600
6600
6E00
7800
6C00
6600
6700
F380
ENDCHAR
STARTCHAR S
ENCODING 83
SWIDTH 556 0
DWIDTH 7 0
BBX 6 9 0 0
BITMAP
78
C8
C8
E0
78
1C
8C
8C
F8
ENDCHAR
STARTCHAR T
ENCODING 84
SWIDTH 714 0
DWIDTH 9 0
BBX 8 9 0 0
BITMAP
FF
99
18
18
18
18
18
18
3C
ENDCHAR
STARTCHAR U
ENCODING 85
SWIDTH 747 0
DWIDTH 9 0
BBX 9 9 0 0
BITMAP
F380
6100
6100
6100
6100
6100
6100
6100
3E00
ENDCHAR
STARTCHAR V
ENCODING 86
SWIDTH 753 0
DWIDTH 9 0
BBX 9 9 0 0
BITMAP
F180
6100
7100
3200
3200
1E00
1C00
0C00
0800
ENDCHAR
STARTCHAR W
ENCODING 87
SWIDTH 955 0
DWIDTH 11 0
BBX 11 9 0 0
BITMAP
E660
6640
6640
6E40
7B80
3B80
3380
3100
1100
ENDCHAR
STARTCHAR X
ENCODING 88
SWIDTH 702 0
DWIDTH 8 0
BBX 8 9 0 0
BITMAP
F3
62
36
3C
18
2C
6E
46
CF
ENDCHAR
STARTCHAR Y
ENCODING 89
SWIDTH 717 0
DWIDTH 9 0
BBX 8 9 0 0
BITMAP
E3
62
72
34
38
18
18
18
3C
ENDCHAR
STARTCHAR Z
ENCODING 90
SWIDTH 639 0
DWIDTH 8 0
BBX 6 9 1 0
BITMAP
FC
8C
18
38
30
70
60
C4
FC
ENDCHAR
STARTCHAR bracketleft
ENCODING 91
SWIDTH 327 0
DWIDTH 4 0
BBX 3 11 1 -2
BITMAP
E0
C0
C0
C0
C0
C0
C0
C0
C0
C0
E0
ENDCHAR
STARTCHAR backslash
ENCODING 92
SWIDTH 527 0
DWIDTH 6 0
BBX 6 11 0 -2
BITMAP
80
40
40
20
20
30
10
10
08
08
04
ENDCHAR
STARTCHAR bracketright
ENCODING 93
SWIDTH 327 0
DWIDTH 4 0
BBX 3 11 0 -2
BITMAP
E0
60
60
60
60
60
60
60
60
60
E0
ENDCHAR
STARTCHAR asciicircum
ENCODING 94
SWIDTH 623 0
DWIDTH 7 0
BBX 7 8 0 1
BITMAP
10
10
28
28
6C
44
44
82
ENDCHAR
STARTCHAR underscore
ENCODING 95
SWIDTH 500 0
DWIDTH 6 0
BBX 5 1 1 -1
BITMAP
F8
ENDCHAR
STARTCHAR grave
ENCODING 96
SWIDTH 617 0
DWIDTH 7 0
BBX 3 2 2 7
BITMAP
C0
20
ENDCHAR
STARTCHAR a
ENCODING 97
SWIDTH 556 0
DWIDTH 7 0
BBX 7 6 0 0
BITMAP
78
0C
7C
CC
CC
76
ENDCHAR
STARTCHAR b
ENCODING 98
SWIDTH 640 0
DWIDTH 8 0
BBX 7 9 0 0
BITMAP
E0
60
60
6C
7E
66
66
66
7C
ENDCHAR
STARTCHAR c
ENCODING 99
SWIDTH 541 0
DWIDTH 6 0
BBX 6 6 0 0
BITMAP
3C
C4
C0
C0
E0
3C
ENDCHAR
STARTCHAR d
ENCODING 100
SWIDTH 652 0
DWIDTH 8 0
BBX 7 9 1 0
BITMAP
1C
0C
0C
7C
CC
CC
CC
FC
6E
ENDCHAR
STARTCHAR e
ENCODING 101
SWIDTH 568 0
DWIDTH 7 0
BBX 6 6 0 0
BITMAP
78
CC
FC
C0
E0
7C
ENDCHAR
STARTCHAR f
ENCODING 102
SWIDTH 416 0
DWIDTH 5 0
BBX 5 9 0 0
BITMAP
38
68
60
F0
60
60
60
60
F0
ENDCHAR
STARTCHAR g
ENCODING 103
SWIDTH 599 0
DWIDTH 7 0
BBX 6 8 1 -2
BITMAP
7C
D8
D8
70
FC
7C
CC
F8
ENDCHAR
STARTCHAR h
ENCODING 104
SWIDTH 654 0
DWIDTH 8 0
BBX 8 9 0 0
BITMAP
E0
60
60
6C
7E
66
66
66
FF
ENDCHAR
STARTCHAR i
ENCODING 105
SWIDTH 325 0
DWIDTH 4 0
BBX 4 9 0 0
BITMAP
60
60
00
E0
60
60
60
60
F0
ENDCHAR
STARTCHAR j
ENCODING 106
SWIDTH 355 0
DWIDTH 4 0
BBX 4 11 0 -2
BITMAP
30
30
00
70
30
30
30
30
30
B0
F0
ENDCHAR
STARTCHAR k
ENCODING 107
SWIDTH 654 0
DWIDTH 7 0
BBX 8 9 0 0
BITMAP
E0
60
60
66
64
78
7C
6E
F7
ENDCHAR
STARTCHAR l
ENCODING 108
SWIDTH 325 0
DWIDTH 4 0
BBX 4 9 0 0
BITMAP
E0
60
60
60
60
60
60
60
F0
ENDCHAR
STARTCHAR m
ENCODING 109
SWIDTH 967 0
DWIDTH 12 0
BBX 12 6 0 0
BITMAP
ECE0
7FE0
6660
6660
6660
FFF0
ENDCHAR
STARTCHAR n
ENCODING 110
SWIDTH 654 0
DWIDTH 8 0
BBX 8 6 0 0
BITMAP
EC
7E
66
66
66
FF
ENDCHAR
STARTCHAR o
ENCODING 111
SWIDTH 617 0
DWIDTH 7 0
BBX 7 6 0 0
BITMAP
7C
EE
C6
C6
EE
7C
ENDCHAR
STARTCHAR p
ENCODING 112
SWIDTH 652 0
DWIDTH 8 0
BBX 7 8 0 -2
BITMAP
EC
7E
66
66
66
7C
60
F0
ENDCHAR
STARTCHAR q
ENCODING 113
SWIDTH 640 0
DWIDTH 8 0
BBX 7 8 1 -2
BITMAP
7C
CC
CC
CC
FC
6C
0C
1E
ENDCHAR
STARTCHAR r
ENCODING 114
SWIDTH 462 0
DWIDTH 6 0
BBX 5 6 0 0
BITMAP
E8
78
60
60
60
F0
ENDCHAR
STARTCHAR s
ENCODING 115
SWIDTH 525 0
DWIDTH 6 0
BBX 5 6 1 0
BITMAP
70
D0
F0
F8
98
F0
ENDCHAR
STARTCHAR t
ENCODING 116
SWIDTH 389 0
DWIDTH 5 0
BBX 5 8 0 0
BITMAP
60
60
F8
60
60
60
60
78
ENDCHAR
STARTCHAR u
ENCODING 117
SWIDTH 654 0
DWIDTH 8 0
BBX 8 6 0 0
BITMAP
EE
66
66
66
7E
37
ENDCHAR
STARTCHAR v
ENCODING 118
SWIDTH 657 0
DWIDTH 8 0
BBX 8 6 0 0
BITMAP
F3
62
76
34
18
18
ENDCHAR
STARTCHAR w
ENCODING 119
SWIDTH 880 0
DWIDTH 11 0
BBX 11 6 0 0
BITMAP
F660
6640
6F40
3B80
3B80
1100
ENDCHAR
STARTCHAR x
ENCODING 120
SWIDTH 608 0
DWIDTH 7 0
BBX 7 6 0 0
BITMAP
F6
74
38
38
4C
CE
ENDCHAR
STARTCHAR y
ENCODING 121
SWIDTH 654 0
DWIDTH 8 0
BBX 8 8 0 -2
BITMAP
F3
62
76
34
18
18
10
60
ENDCHAR
STARTCHAR z
ENCODING 122
SWIDTH 584 0
DWIDTH 7 0
BBX 6 6 0 0
BITMAP
FC
9C
38
70
E4
FC
ENDCHAR
STARTCHAR braceleft
ENCODING 123
SWIDTH 366 0
DWIDTH 4 0
BBX 3 11 1 -2
BITMAP
60
60
60
C0
C0
80
C0
C0
60
60
60
ENDCHAR
STARTCHAR bar
ENCODING 124
SWIDTH 259 0
DWIDTH 3 0
BBX 1 11 1 -2
BITMAP
80
80
80
80
80
80
80
80
80
80
80
ENDCHAR
STARTCHAR braceright
ENCODING 125
SWIDTH 366 0
DWIDTH 4 0
BBX 3 11 1 -2
BITMAP
C0
C0
C0
60
60
20
60
60
C0
C0
C0
ENDCHAR
STARTCHAR asciitilde
ENCODING 126
SWIDTH 623 0
DWIDTH 7 0
BBX 7 2 0 2
BITMAP
72
9C
ENDCHAR
STARTCHAR space
ENCODING 160
SWIDTH 333 0
DWIDTH 4 0
BBX 1 1 0 0
BITMAP
00
ENDCHAR
STARTCHAR exclamdown
ENCODING 161
SWIDTH 265 0
DWIDTH 3 0
BBX 2 8 1 -2
BITMAP
C0
C0
40
40
C0
C0
C0
C0
ENDCHAR
STARTCHAR cent
ENCODING 162
SWIDTH 623 0
DWIDTH 7 0
BBX 6 9 1 0
BITMAP
10
7C
D4
D0
D0
D0
50
7C
10
ENDCHAR
STARTCHAR sterling
ENCODING 163
SWIDTH 623 0
DWIDTH 7 0
BBX 5 9 2 0
BITMAP
38
68
60
60
F0
60
40
F8
F8
ENDCHAR
STARTCHAR currency
ENCODING 164
SWIDTH 623 0
DWIDTH 7 0
BBX 7 9 0 0
BITMAP
82
7C
6C
44
44
44
6C
7C
82
ENDCHAR
STARTCHAR yen
ENCODING 165
SWIDTH 623 0
DWIDTH 7 0
BBX 8 9 0 0
BITMAP
F3
62
76
3C
7C
18
7C
18
3C
ENDCHAR
STARTCHAR brokenbar
ENCODING 166
SWIDTH 259 0
DWIDTH 3 0
BBX 1 11 1 -2
BITMAP
80
80
80
80
80
00
80
80
80
80
80
ENDCHAR
STARTCHAR section
ENCODING 167
SWIDTH 623 0
DWIDTH 7 0
BBX 6 11 1 -2
BITMAP
7C
C4
C0
70
FC
CC
FC
78
0C
8C
F8
ENDCHAR
STARTCHAR dieresis
ENCODING 168
SWIDTH 617 0
DWIDTH 7 0
BBX 4 2 2 7
BITMAP
90
90
ENDCHAR
STARTCHAR copyright
ENCODING 169
SWIDTH 855 0
DWIDTH 10 0
BBX 9 9 1 0
BITMAP
1C00
6300
5D00
B480
B080
B080
5D00
6300
1C00
ENDCHAR
STARTCHAR ordfeminine
ENCODING 170
SWIDTH 488 0
DWIDTH 6 0
BBX 6 5 0 4
BITMAP
F8
18
78
D8
EC
ENDCHAR
STARTCHAR guillemotleft
ENCODING 171
SWIDTH 566 0
DWIDTH 7 0
BBX 6 6 0 0
BITMAP
24
68
D8
D8
68
24
ENDCHAR
STARTCHAR logicalnot
ENCODING 172
SWIDTH 623 0
DWIDTH 7 0
BBX 7 3 0 2
BITMAP
FE
02
02
ENDCHAR
STARTCHAR hyphen
ENCODING 173
SWIDTH 289 0
DWIDTH 3 0
BBX 3 2 0 2
BITMAP
E0
E0
ENDCHAR
STARTCHAR registered
ENCODING 174
SWIDTH 623 0
DWIDTH 7 0
BBX 6 6 1 3
BITMAP
78
CC
B4
B4
EC
78
ENDCHAR
STARTCHAR macron
ENCODING 175
SWIDTH 617 0
DWIDTH 7 0
BBX 4 1 2 8
BITMAP
F0
ENDCHAR
STARTCHAR degree
ENCODING 176
SWIDTH 259 0
DWIDTH 3 0
BBX 2 2 1 7
BITMAP
C0
C0
ENDCHAR
STARTCHAR plusminus
ENCODING 177
SWIDTH 623 0
DWIDTH 7 0
BBX 7 8 0 0
BITMAP
10
10
10
FE
10
10
00
FE
ENDCHAR
STARTCHAR twosuperior
ENCODING 178
SWIDTH 374 0
DWIDTH 4 0
BBX 3 5 -7 4
BITMAP
E0
A0
40
C0
E0
ENDCHAR
STARTCHAR threesuperior
ENCODING 179
SWIDTH 374 0
DWIDTH 4 0
BBX 3 5 -7 4
BITMAP
E0
A0
40
A0
E0
ENDCHAR
STARTCHAR acute
ENCODING 180
SWIDTH 617 0
DWIDTH 7 0
BBX 3 2 3 7
BITMAP
60
80
ENDCHAR
STARTCHAR mu
ENCODING 181
SWIDTH 705 0
DWIDTH 8 0
BBX 8 8 0 -2
BITMAP
EE
66
66
66
7E
77
60
60
ENDCHAR
STARTCHAR paragraph
ENCODING 182
SWIDTH 623 0
DWIDTH 7 0
BBX 4 11 1 -2
BITMAP
70
F0
F0
F0
70
30
30
30
30
30
30
ENDCHAR
STARTCHAR periodcentered
ENCODING 183
SWIDTH 623 0
DWIDTH 7 0
BBX 1 2 3 2
BITMAP
80
80
ENDCHAR
STARTCHAR cedilla
ENCODING 184
SWIDTH 617 0
DWIDTH 7 0
BBX 2 2 3 -2
BITMAP
80
C0
ENDCHAR
STARTCHAR onesuperior
ENCODING 185
SWIDTH 374 0
DWIDTH 4 0
BBX 3 5 -7 4
BITMAP
C0
40
40
40
E0
ENDCHAR
STARTCHAR ordmasculine
ENCODING 186
SWIDTH 488 0
DWIDTH 6 0
BBX 5 5 0 4
BITMAP
70
D8
D8
D8
70
ENDCHAR
STARTCHAR guillemotright
ENCODING 187
SWIDTH 566 0
DWIDTH 7 0
BBX 6 6 1 0
BITMAP
90
58
6C
6C
58
90
ENDCHAR
STARTCHAR onequarter
ENCODING 188
SWIDTH 803 0
DWIDTH 10 0
BBX 10 9 2 0
BITMAP
61C0
2380
2700
2E00
7F00
1F00
3F80
7100
E380
ENDCHAR
STARTCHAR onehalf
ENCODING 189
SWIDTH 803 0
DWIDTH 10 0
BBX 10 9 2 0
BITMAP
61C0
2380
2700
2E00
7F80
1E80
3900
7300
E380
ENDCHAR
STARTCHAR threequarters
ENCODING 190
SWIDTH 803 0
DWIDTH 10 0
BBX 10 9 2 0
BITMAP
71C0
5380
2700
5E00
7F00
1F00
3F80
7100
E380
ENDCHAR
STARTCHAR questiondown
ENCODING 191
SWIDTH 505 0
DWIDTH 6 0
BBX 5 8 1 -2
BITMAP
30
30
30
20
40
C0
C8
78
ENDCHAR
STARTCHAR Agrave
ENCODING 192
SWIDTH 795 0
DWIDTH 10 0
BBX 10 12 0 0
BITMAP
1800
0400
0000
0C00
0C00
1E00
1600
2300
3F00
4180
4180
C3C0
ENDCHAR
STARTCHAR Aacute
ENCODING 193
SWIDTH 795 0
DWIDTH 10 0
BBX 10 12 0 0
BITMAP
0600
0800
0000
0C00
0C00
1E00
1600
2300
3F00
4180
4180
C3C0
ENDCHAR
STARTCHAR Acircumflex
ENCODING 194
SWIDTH 795 0
DWIDTH 10 0
BBX 10 12 0 0
BITMAP
0C00
1200
0000
0C00
0C00
1E00
1600
2300
3F00
4180
4180
C3C0
ENDCHAR
STARTCHAR Atilde
ENCODING 195
SWIDTH 795 0
DWIDTH 10 0
BBX 10 12 0 0
BITMAP
1E00
1E00
0000
0C00
0C00
1E00
1600
2300
3F00
4180
4180
C3C0
ENDCHAR
STARTCHAR Adieresis
ENCODING 196
SWIDTH 795 0
DWIDTH 10 0
BBX 10 12 0 0
BITMAP
1200
1200
0000
0C00
0C00
1E00
1600
2300
3F00
4180
4180
C3C0
ENDCHAR
STARTCHAR Aring
ENCODING 197
SWIDTH 795 0
DWIDTH 10 0
BBX 10 12 0 0
BITMAP
0C00
0C00
0000
0C00
0C00
1E00
1600
2300
3F00
4180
4180
C3C0
ENDCHAR
STARTCHAR AE
ENCODING 198
SWIDTH 959 0
DWIDTH 12 0
BBX 11 9 0 0
BITMAP
07E0
0E20
0E40
17C0
2640
3E00
4600
C620
CFE0
ENDCHAR
STARTCHAR Ccedilla
ENCODING 199
SWIDTH 711 0
DWIDTH 9 0
BBX 8 11 0 -2
BITMAP
3F
61
C1
C0
C0
C0
C0
61
3F
10
18
ENDCHAR
STARTCHAR Egrave
ENCODING 200
SWIDTH 601 0
DWIDTH 7 0
BBX 7 12 0 0
BITMAP
30
08
00
FE
62
60
64
7C
64
60
62
FE
ENDCHAR
STARTCHAR Eacute
ENCODING 201
SWIDTH 601 0
DWIDTH 7 0
BBX 7 12 0 0
BITMAP
18
20
00
FE
62
60
64
7C
64
60
62
FE
ENDCHAR
STARTCHAR Ecircumflex
ENCODING 202
SWIDTH 601 0
DWIDTH 7 0
BBX 7 12 0 0
BITMAP
18
24
00
FE
62
60
64
7C
64
60
62
FE
ENDCHAR
STARTCHAR Edieresis
ENCODING 203
SWIDTH 601 0
DWIDTH 7 0
BBX 7 12 0 0
BITMAP
24
24
00
FE
62
60
64
7C
64
60
62
FE
ENDCHAR
STARTCHAR Igrave
ENCODING 204
SWIDTH 349 0
DWIDTH 4 0
BBX 4 12 0 0
BITMAP
C0
20
00
F0
60
60
60
60
60
60
60
F0
ENDCHAR
STARTCHAR Iacute
ENCODING 205
SWIDTH 349 0
DWIDTH 4 0
BBX 4 12 0 0
BITMAP
30
40
00
F0
60
60
60
60
60
60
60
F0
ENDCHAR
STARTCHAR Icircumflex
ENCODING 206
SWIDTH 349 0
DWIDTH 4 0
BBX 4 12 0 0
BITMAP
60
90
00
F0
60
60
60
60
60
60
60
F0
ENDCHAR
STARTCHAR Idieresis
ENCODING 207
SWIDTH 349 0
DWIDTH 4 0
BBX 4 12 0 0
BITMAP
90
90
00
F0
60
60
60
60
60
60
60
F0
ENDCHAR
STARTCHAR Eth
ENCODING 208
SWIDTH 794 0
DWIDTH 10 0
BBX 9 9 0 0
BITMAP
FE00
6300
6180
6180
F980
6180
6180
6300
FE00
ENDCHAR
STARTCHAR Ntilde
ENCODING 209
SWIDTH 788 0
DWIDTH 9 0
BBX 9 12 0 0
BITMAP
1E00
1E00
0000
E380
6100
7100
7900
5D00
4D00
4700
4700
E300
ENDCHAR
STARTCHAR Ograve
ENCODING 210
SWIDTH 810 0
DWIDTH 10 0
BBX 9 12 0 0
BITMAP
1800
0400
0000
3E00
6300
C180
C180
C180
C180
C180
6300
3E00
ENDCHAR
STARTCHAR Oacute
ENCODING 211
SWIDTH 810 0
DWIDTH 10 0
BBX 9 12 0 0
BITMAP
0C00
1000
0000
3E00
6300
C180
C180
C180
C180
C180
6300
3E00
ENDCHAR
STARTCHAR Ocircumflex
ENCODING 212
SWIDTH 810 0
DWIDTH 10 0
BBX 9 12 0 0
BITMAP
1800
2400
0000
3E00
6300
C180
C180
C180
C180
C180
6300
3E00
ENDCHAR
STARTCHAR Otilde
ENCODING 213
SWIDTH 810 0
DWIDTH 10 0
BBX 9 12 0 0
BITMAP
3C00
3C00
0000
3E00
6300
C180
C180
C180
C180
C180
6300
3E00
ENDCHAR
STARTCHAR Odieresis
ENCODING 214
SWIDTH 810 0
DWIDTH 10 0
BBX 9 12 0 0
BITMAP
2400
2400
0000
3E00
6300
C180
C180
C180
C180
C180
6300
3E00
ENDCHAR
STARTCHAR multiply
ENCODING 215
SWIDTH 623 0
DWIDTH 7 0
BBX 7 8 0 0
BITMAP
82
44
28
38
38
28
44
82
ENDCHAR
STARTCHAR Oslash
ENCODING 216
SWIDTH 810 0
DWIDTH 10 0
BBX 9 9 0 0
BITMAP
3C80
6300
C380
C580
C980
D180
E180
6300
9E00
ENDCHAR
STARTCHAR Ugrave
ENCODING 217
SWIDTH 747 0
DWIDTH 9 0
BBX 9 12 0 0
BITMAP
1800
0400
0000
F380
6100
6100
6100
6100
6100
6100
6100
3E00
ENDCHAR
STARTCHAR Uacute
ENCODING 218
SWIDTH 747 0
DWIDTH 9 0
BBX 9 12 0 0
BITMAP
0C00
1000
0000
F380
6100
6100
6100
6100
6100
6100
6100
3E00
ENDCHAR
STARTCHAR Ucircumflex
ENCODING 219
SWIDTH 747 0
DWIDTH 9 0
BBX 9 12 0 0
BITMAP
1800
2400
0000
F380
6100
6100
6100
6100
6100
6100
6100
3E00
ENDCHAR
STARTCHAR Udieresis
ENCODING 220
SWIDTH 747 0
DWIDTH 9 0
BBX 9 12 0 0
BITMAP
2400
2400
0000
F380
6100
6100
6100
6100
6100
6100
6100
3E00
ENDCHAR
STARTCHAR Yacute
ENCODING 221
SWIDTH 717 0
DWIDTH 9 0
BBX 8 12 0 0
BITMAP
0C
10
00
E3
62
72
34
38
18
18
18
3C
ENDCHAR
STARTCHAR Thorn
ENCODING 222
SWIDTH 614 0
DWIDTH 7 0
BBX 7 9 0 0
BITMAP
F0
60
7C
66
66
66
7C
60
F0
ENDCHAR
STARTCHAR germandbls
ENCODING 223
SWIDTH 700 0
DWIDTH 8 0
BBX 8 9 0 0
BITMAP
3C
66
64
68
6C
6E
67
6B
FE
ENDCHAR
STARTCHAR agrave
ENCODING 224
SWIDTH 556 0
DWIDTH 7 0
BBX 7 9 0 0
BITMAP
30
08
00
78
0C
7C
CC
CC
76
ENDCHAR
STARTCHAR aacute
ENCODING 225
SWIDTH 556 0
DWIDTH 7 0
BBX 7 9 0 0
BITMAP
18
20
00
78
0C
7C
CC
CC
76
ENDCHAR
STARTCHAR acircumflex
ENCODING 226
SWIDTH 556 0
DWIDTH 7 0
BBX 7 9 0 0
BITMAP
30
48
00
78
0C
7C
CC
CC
76
ENDCHAR
STARTCHAR atilde
ENCODING 227
SWIDTH 556 0
DWIDTH 7 0
BBX 7 9 0 0
BITMAP
78
78
00
78
0C
7C
CC
CC
76
ENDCHAR
STARTCHAR adieresis
ENCODING 228
SWIDTH 556 0
DWIDTH 7 0
BBX 7 9 0 0
BITMAP
48
48
00
78
0C
7C
CC
CC
76
ENDCHAR
STARTCHAR aring
ENCODING 229
SWIDTH 556 0
DWIDTH 7 0
BBX 7 9 0 0
BITMAP
30
30
00
78
0C
7C
CC
CC
76
ENDCHAR
STARTCHAR ae
ENCODING 230
SWIDTH 858 0
DWIDTH 10 0
BBX 9 6 0 0
BITMAP
7700
0D80
7F80
CC00
CE00
7780
ENDCHAR
STARTCHAR ccedilla
ENCODING 231
SWIDTH 541 0
DWIDTH 6 0
BBX 6 8 0 -2
BITMAP
3C
C4
C0
C0
E0
3C
20
30
ENDCHAR
STARTCHAR egrave
ENCODING 232
SWIDTH 568 0
DWIDTH 7 0
BBX 6 9 0 0
BITMAP
60
10
00
78
CC
FC
C0
E0
7C
ENDCHAR
STARTCHAR eacute
ENCODING 233
SWIDTH 568 0
DWIDTH 7 0
BBX 6 9 0 0
BITMAP
18
20
00
78
CC
FC
C0
E0
7C
ENDCHAR
STARTCHAR ecircumflex
ENCODING 234
SWIDTH 568 0
DWIDTH 7 0
BBX 6 9 0 0
BITMAP
30
48
00
78
CC
FC
C0
E0
7C
ENDCHAR
STARTCHAR edieresis
ENCODING 235
SWIDTH 568 0
DWIDTH 7 0
BBX 6 9 0 0
BITMAP
48
48
00
78
CC
FC
C0
E0
7C
ENDCHAR
STARTCHAR igrave
ENCODING 236
SWIDTH 325 0
DWIDTH 4 0
BBX 4 9 0 0
BITMAP
C0
20
00
E0
60
60
60
60
F0
ENDCHAR
STARTCHAR iacute
ENCODING 237
SWIDTH 325 0
DWIDTH 4 0
BBX 4 9 0 0
BITMAP
30
40
00
E0
60
60
60
60
F0
ENDCHAR
STARTCHAR icircumflex
ENCODING 238
SWIDTH 325 0
DWIDTH 4 0
BBX 4 9 0 0
BITMAP
60
90
00
E0
60
60
60
60
F0
ENDCHAR
STARTCHAR idieresis
ENCODING 239
SWIDTH 325 0
DWIDTH 4 0
BBX 4 9 0 0
BITMAP
90
90
00
E0
60
60
60
60
F0
ENDCHAR
STARTCHAR eth
ENCODING 240
SWIDTH 652 0
DWIDTH 8 0
BBX 7 10 0 0
BITMAP
18
F0
38
CC
7E
CE
C6
C6
EC
78
ENDCHAR
STARTCHAR ntilde
ENCODING 241
SWIDTH 654 0
DWIDTH 8 0
BBX 8 9 0 0
BITMAP
3C
3C
00
EC
7E
66
66
66
FF
ENDCHAR
STARTCHAR ograve
ENCODING 242
SWIDTH 617 0
DWIDTH 7 0
BBX 7 9 0 0
BITMAP
30
08
00
7C
EE
C6
C6
EE
7C
ENDCHAR
STARTCHAR oacute
ENCODING 243
SWIDTH 617 0
DWIDTH 7 0
BBX 7 9 0 0
BITMAP
18
20
00
7C
EE
C6
C6
EE
7C
ENDCHAR
STARTCHAR ocircumflex
ENCODING 244
SWIDTH 617 0
DWIDTH 7 0
BBX 7 9 0 0
BITMAP
18
24
00
7C
EE
C6
C6
EE
7C
ENDCHAR
STARTCHAR otilde
ENCODING 245
SWIDTH 617 0
DWIDTH 7 0
BBX 7 9 0 0
BITMAP
3C
3C
00
7C
EE
C6
C6
EE
7C
ENDCHAR
STARTCHAR odieresis
ENCODING 246
SWIDTH 617 0
DWIDTH 7 0
BBX 7 9 0 0
BITMAP
24
24
00
7C
EE
C6
C6
EE
7C
ENDCHAR
STARTCHAR divide
ENCODING 247
SWIDTH 623 0
DWIDTH 7 0
BBX 8 6 0 0
BITMAP
18
18
FF
00
18
18
ENDCHAR
STARTCHAR oslash
ENCODING 248
SWIDTH 617 0
DWIDTH 7 0
BBX 7 6 0 0
BITMAP
7A
E6
DE
F6
CE
BC
ENDCHAR
STARTCHAR ugrave
ENCODING 249
SWIDTH 654 0
DWIDTH 8 0
BBX 8 9 0 0
BITMAP
30
08
00
EE
66
66
66
7E
37
ENDCHAR
STARTCHAR uacute
ENCODING 250
SWIDTH 654 0
DWIDTH 8 0
BBX 8 9 0 0
BITMAP
0C
10
00
EE
66
66
66
7E
37
ENDCHAR
STARTCHAR ucircumflex
ENCODING 251
SWIDTH 654 0
DWIDTH 8 0
BBX 8 9 0 0
BITMAP
18
24
00
EE
66
66
66
7E
37
ENDCHAR
STARTCHAR udieresis
ENCODING 252
SWIDTH 654 0
DWIDTH 8 0
BBX 8 9 0 0
BITMAP
24
24
00
EE
66
66
66
7E
37
ENDCHAR
STARTCHAR yacute
ENCODING 253
SWIDTH 654 0
DWIDTH 8 0
BBX 8 11 0 -2
BITMAP
0C
10
00
F3
62
76
34
18
18
10
60
ENDCHAR
STARTCHAR thorn
ENCODING 254
SWIDTH 652 0
DWIDTH 8 0
BBX 7 11 0 -2
BITMAP
E0
60
60
6C
7E
66
66
66
7C
60
F0
ENDCHAR
STARTCHAR ydieresis
ENCODING 255
SWIDTH 654 0
DWIDTH 8 0
BBX 8 11 0 -2
BITMAP
24
24
00
F3
62
76
34
18
18
10
60
ENDCHAR
ENDFONT
